<?xml version="1.0" encoding="UTF-8"?>
<svg xmlns="http://www.w3.org/2000/svg" version="1.1" width="232" height="158" style="background-color:transparent;">
  <path d="M0 0 C1.56403126 -0.00322259 3.12806223 -0.00658737 4.6920929 -0.01008606 C7.95904233 -0.01604372 11.22596545 -0.0179295 14.49291992 -0.01733398 C18.63669416 -0.01723268 22.78029584 -0.03086714 26.92402935 -0.04810619 C30.15266157 -0.05933954 33.38125359 -0.06124974 36.60990334 -0.06072426 C38.13540044 -0.06188807 39.66089916 -0.06621744 41.18637657 -0.07405663 C69.65741361 -0.20665389 69.65741361 -0.20665389 77.80078125 5.16796875 C90.00318218 17.49463038 99.33651664 33.70704269 108.80078125 48.16796875 C109.46078125 47.83796875 110.12078125 47.50796875 110.80078125 47.16796875 C111.19589167 45.72019187 111.54300591 44.25911808 111.86328125 42.79296875 C112.75325447 39.98441006 113.23206797 38.56051097 115.6796875 36.87109375 C121.03021026 34.89837927 126.30541023 34.5853019 131.80078125 36.16796875 C134.36328125 37.73046875 134.36328125 37.73046875 135.80078125 40.16796875 C136.45923694 43.00573798 136.53142548 45.33891429 135.80078125 48.16796875 C130.96927064 53.13752252 123.342041 54.46940959 116.80078125 56.16796875 C116.14078125 56.16796875 115.48078125 56.16796875 114.80078125 56.16796875 C115.29449219 57.06 115.78820312 57.95203125 116.296875 58.87109375 C116.94424893 60.05325483 117.59137114 61.23555379 118.23828125 62.41796875 C118.56376953 63.00449219 118.88925781 63.59101562 119.22460938 64.1953125 C122.02484071 69.33388133 122.92697491 73.0034189 122.93359375 78.82421875 C122.93488281 79.93023437 122.93617188 81.03625 122.9375 82.17578125 C122.93363281 83.32820313 122.92976562 84.480625 122.92578125 85.66796875 C122.92964844 86.78945312 122.93351563 87.9109375 122.9375 89.06640625 C122.93144481 94.31020297 122.82128494 99.48249406 122.31640625 104.703125 C121.80664375 110.18375093 121.67028502 115.63289902 121.58984375 121.1328125 C121.57555328 122.02114777 121.56126282 122.90948303 121.54653931 123.82473755 C121.48867424 127.52739752 121.43394645 131.22990174 121.39941406 134.93286133 C121.37183713 137.66654409 121.32603967 140.39943527 121.27734375 143.1328125 C121.27409088 143.96618637 121.27083801 144.79956024 121.26748657 145.65818787 C121.16922439 150.29499812 120.80755043 153.4023746 117.80078125 157.16796875 C113.69577247 159.22047314 108.43761181 158.44116709 103.92578125 158.48046875 C102.82363281 158.50947266 101.72148437 158.53847656 100.5859375 158.56835938 C99.52503906 158.57673828 98.46414062 158.58511719 97.37109375 158.59375 C96.39930176 158.60833252 95.42750977 158.62291504 94.42626953 158.63793945 C91.03088199 158.03015435 89.8820402 156.87288751 87.80078125 154.16796875 C87.05078125 150.41796875 87.05078125 150.41796875 86.80078125 147.16796875 C85.57746094 147.32136719 84.35414063 147.47476563 83.09375 147.6328125 C40.8213306 152.28056542 -5.95377291 152.00093315 -48.19921875 147.16796875 C-48.11671875 148.24046875 -48.03421875 149.31296875 -47.94921875 150.41796875 C-48.19921875 154.16796875 -48.19921875 154.16796875 -49.85742188 156.36914062 C-52.75606152 158.59570202 -54.29305462 158.68287979 -57.91796875 158.69921875 C-59.01496094 158.704375 -60.11195312 158.70953125 -61.2421875 158.71484375 C-62.38300781 158.699375 -63.52382813 158.68390625 -64.69921875 158.66796875 C-66.41044922 158.69117188 -66.41044922 158.69117188 -68.15625 158.71484375 C-69.25324219 158.7096875 -70.35023437 158.70453125 -71.48046875 158.69921875 C-72.9819043 158.69245117 -72.9819043 158.69245117 -74.51367188 158.68554688 C-77.19921875 158.16796875 -77.19921875 158.16796875 -79.52075195 156.6796875 C-81.93041632 153.07377812 -81.78323943 149.64372107 -81.7734375 145.44921875 C-81.78760208 144.59549683 -81.80176666 143.7417749 -81.81636047 142.86218262 C-81.85823345 140.13065159 -81.87346457 137.39977497 -81.88671875 134.66796875 C-81.92545843 131.09495376 -81.97427145 127.52210344 -82.0234375 123.94921875 C-82.03858902 122.64967758 -82.03858902 122.64967758 -82.05404663 121.32388306 C-82.1297599 115.87691246 -82.43340053 110.50340552 -82.95239258 105.07910156 C-83.4682806 98.99458246 -83.62457275 92.89703436 -83.69921875 86.79296875 C-83.70800049 86.11152802 -83.71678223 85.43008728 -83.72583008 84.72799683 C-83.79957739 74.1097895 -82.86255633 65.75211537 -76.19921875 57.16796875 C-81.34995214 54.91652738 -86.52597059 52.95919467 -91.84375 51.1328125 C-94.19921875 50.16796875 -94.19921875 50.16796875 -96.19921875 48.16796875 C-96.86427899 41.29567959 -96.86427899 41.29567959 -94.76171875 37.73046875 C-89.81713962 34.71548147 -84.89433749 34.83988125 -79.32421875 35.91796875 C-75.66649442 37.38105848 -73.91612683 38.62499375 -72.25 42.2109375 C-71.88455078 43.27248047 -71.88455078 43.27248047 -71.51171875 44.35546875 C-71.26035156 45.07089844 -71.00898437 45.78632812 -70.75 46.5234375 C-70.56824219 47.06613281 -70.38648437 47.60882813 -70.19921875 48.16796875 C-66.77029045 43.999627 -63.66656876 39.64889501 -60.57421875 35.23046875 C-59.50538377 33.71211607 -58.43637059 32.19388882 -57.3671875 30.67578125 C-55.83602503 28.49847842 -54.30593754 26.32046612 -52.77978516 24.13964844 C-49.96258732 20.1162513 -47.10205629 16.13008736 -44.19921875 12.16796875 C-43.60882813 11.33007812 -43.0184375 10.4921875 -42.41015625 9.62890625 C-37.52969505 3.26811558 -32.00948114 1.94999896 -24.27490234 0.90896606 C-16.19650227 -0.02084871 -8.11937757 0.00397021 0 0 Z M-38.88671875 17.30078125 C-46.44029913 26.66620017 -53.41792783 37.10428394 -58.19921875 48.16796875 C-56.51748134 51.42462048 -56.51748134 51.42462048 -53.40670776 51.84638977 C-47.59019834 52.44220749 -41.71884174 52.31534765 -35.87939453 52.31323242 C-34.53337512 52.31622832 -33.18735656 52.31963184 -31.84133911 52.32341003 C-28.20076494 52.3322097 -24.56021431 52.33458642 -20.91963053 52.33522582 C-18.64122049 52.33593854 -16.36281637 52.33807703 -14.08440781 52.34072304 C-6.12479017 52.34996263 1.83481077 52.3540596 9.79443359 52.35327148 C17.19652419 52.35267084 24.59854189 52.36322356 32.00061405 52.37901515 C38.37112261 52.39211837 44.74160741 52.39745423 51.11212933 52.39681607 C54.91015575 52.39656194 58.7081173 52.39936662 62.50613022 52.40999413 C66.07994956 52.41972226 69.65364262 52.41972222 73.22746658 52.41247749 C75.15201687 52.41094455 77.07656727 52.41924506 79.00109863 52.42791748 C85.59161158 52.40415642 91.43092621 51.88600938 97.80078125 50.16796875 C95.89744844 43.66541193 93.39459577 38.34972341 89.61328125 32.73046875 C88.88407471 31.62904541 88.88407471 31.62904541 88.14013672 30.50537109 C80.5607736 18.0488418 80.5607736 18.0488418 68.69552612 10.59550476 C64.75174487 10.01303253 60.88039827 10.02053455 56.89892578 10.02270508 C56.01211121 10.01934647 55.12529663 10.01598785 54.21160889 10.01252747 C51.28558952 10.00304352 48.35962753 10.00107566 45.43359375 10 C43.39484636 9.99678573 41.3560992 9.99342153 39.31735229 9.98991394 C35.04538437 9.98392913 30.77343666 9.98207339 26.50146484 9.98266602 C21.03511348 9.98276762 15.56889206 9.96911414 10.10257149 9.95189381 C5.89203296 9.94076019 1.68152571 9.93874723 -2.52902603 9.93927574 C-4.54399183 9.93809773 -6.55895849 9.93368602 -8.57390976 9.92594337 C-11.39555647 9.91611573 -14.21692273 9.91903248 -17.03857422 9.92504883 C-18.2794429 9.91661957 -18.2794429 9.91661957 -19.54537964 9.90802002 C-27.60247783 9.95154281 -33.24537174 11.28481354 -38.88671875 17.30078125 Z M-69.19921875 80.16796875 C-71.58086067 83.01057362 -72.19921875 84.45202142 -72.19921875 88.16796875 C-70.90680146 92.04522061 -69.48488215 93.73943493 -66.19921875 96.16796875 C-62.00390679 96.6831825 -58.71787846 96.64406262 -55.19921875 94.16796875 C-52.73170636 90.46670016 -52.89200719 88.54573343 -53.19921875 84.16796875 C-54.1457189 80.76056821 -55.07285505 80.24168091 -58.19921875 78.41796875 C-62.93300116 76.44555941 -64.83756529 77.58658201 -69.19921875 80.16796875 Z M94.80078125 80.16796875 C92.30919085 83.90535435 92.3428484 85.74128458 92.80078125 90.16796875 C94.5964053 92.92125896 95.85333047 94.69424336 98.80078125 96.16796875 C103.15270463 96.66063932 105.10060133 96.68549304 108.67578125 94.04296875 C111.06893008 90.80517915 111.88287273 89.1904515 111.80078125 85.16796875 C109.90260094 81.05524474 108.55316113 79.51629277 104.42578125 77.60546875 C100.10336481 77.0837978 98.37391813 77.75817876 94.80078125 80.16796875 Z M-48.19921875 90.16796875 C-47.93265303 93.10240277 -47.93265303 93.10240277 -47.19921875 96.16796875 C-44.37353329 98.4883497 -44.37353329 98.4883497 -41.13671875 97.98046875 C-37.90180922 97.43042377 -37.90180922 97.43042377 -36.19921875 94.16796875 C-36.36196413 90.91306117 -36.73530034 89.60195694 -39.13671875 87.35546875 C-43.30090033 84.95790966 -44.86184051 87.35754497 -48.19921875 90.16796875 Z M75.80078125 90.16796875 C76.06734697 93.10240277 76.06734697 93.10240277 76.80078125 96.16796875 C79.62795338 98.50093126 79.62795338 98.50093126 82.86328125 97.91796875 C85.90024025 97.40864435 85.90024025 97.40864435 87.80078125 95.16796875 C87.71334434 91.63901927 87.71334434 91.63901927 86.80078125 88.16796875 C81.72720825 84.78558675 80.044386 86.4978241 75.80078125 90.16796875 Z M-28.19921875 104.16796875 C-29.18921875 104.66296875 -29.18921875 104.66296875 -30.19921875 105.16796875 C-30.19921875 106.15796875 -30.19921875 107.14796875 -30.19921875 108.16796875 C-21.22155582 110.80342725 -12.18149553 110.43955092 -2.91796875 110.3984375 C-1.13635288 110.39724318 0.64526363 110.39679307 2.42687988 110.39704895 C6.14872214 110.39549076 9.87046731 110.38725277 13.59228516 110.3737793 C18.34309751 110.35679067 23.09380347 110.35296546 27.84464264 110.35372448 C31.51996866 110.35345147 35.19527183 110.34794921 38.87059021 110.34072304 C40.6215345 110.33755981 42.37248136 110.3355745 44.12342834 110.33482933 C46.57777236 110.33264063 49.03200781 110.32384272 51.48632812 110.31323242 C52.55269753 110.3139122 52.55269753 110.3139122 53.64060974 110.31460571 C62.47585839 110.47594823 62.47585839 110.47594823 70.80078125 108.16796875 C69.82275589 105.62602381 69.14712507 104.38480678 66.80909729 102.92102051 C58.07870477 99.59937731 49.64233627 99.58371798 40.453125 99.63671875 C38.78886184 99.63401746 37.12460023 99.63012976 35.46034241 99.62512207 C31.98992737 99.61925855 28.51992699 99.62768842 25.04956055 99.64648438 C20.62592844 99.66929028 16.20326651 99.6561209 11.77966976 99.63219452 C8.34872773 99.61766597 4.91801169 99.62237431 1.48706245 99.63270569 C-0.14304154 99.63535261 -1.77316682 99.63217577 -3.40324593 99.62278748 C-12.33610173 99.58260873 -20.12734112 99.83606501 -28.19921875 104.16796875 Z M-42.19921875 125.16796875 C-42.64766728 129.13924002 -42.64766728 129.13924002 -40.32421875 131.23046875 C-28.45386245 138.59008966 -13.38360468 137.32932568 0.0625 137.3359375 C1.62270639 137.33916132 3.18291249 137.34252618 4.74311829 137.34602356 C7.99989521 137.35197636 11.25664576 137.3538675 14.51342773 137.35327148 C18.64025992 137.35317019 22.76691884 137.36680658 26.89371014 137.38404369 C30.11380251 137.3952874 33.33385464 137.39718693 36.55396461 137.39666176 C38.07305306 137.39782396 39.59214317 137.40214366 41.11121178 137.40999413 C62.7829756 138.21875579 62.7829756 138.21875579 81.5 129.5390625 C82.14388672 128.86037109 82.14388672 128.86037109 82.80078125 128.16796875 C82.30578125 126.68296875 82.30578125 126.68296875 81.80078125 125.16796875 C75.60071081 123.03248259 69.72139154 122.88166541 63.21313477 122.90917969 C62.18279114 122.90567505 61.15244751 122.90217041 60.09088135 122.89855957 C56.70374706 122.88979715 53.31682371 122.89557251 49.9296875 122.90234375 C47.56371521 122.90099542 45.19774319 122.89905349 42.83177185 122.89654541 C37.87992711 122.89360149 32.92815467 122.89786792 27.97631836 122.90722656 C21.64370999 122.91861432 15.3112713 122.91206115 8.97866917 122.90008163 C4.09464755 122.89283799 -0.78933416 122.89516259 -5.67335701 122.90033722 C-8.00764041 122.90166711 -10.34192748 122.90004925 -12.67620659 122.89537811 C-15.94496056 122.89027241 -19.21344381 122.8980802 -22.48217773 122.90917969 C-23.43778091 122.90513123 -24.39338409 122.90108276 -25.37794495 122.89691162 C-31.27304954 122.93380585 -36.4852549 123.70027346 -42.19921875 125.16796875 Z " fill="#2E47D3" transform="translate(96.19921875,-0.16796875)"/>
</svg>
